<mxfile host="app.diagrams.net" agent="Mozilla/5.0 (Windows NT 10.0; Win64; x64) AppleWebKit/537.36 (KHTML, like Gecko) Chrome/131.0.0.0 Safari/537.36" version="26.0.6">
  <diagram name="第 1 页" id="EoKzsfYvX2hHvfft86sc">
    <mxGraphModel dx="2390" dy="1243" grid="1" gridSize="10" guides="1" tooltips="1" connect="1" arrows="1" fold="1" page="1" pageScale="1" pageWidth="827" pageHeight="1169" math="0" shadow="0">
      <root>
        <mxCell id="0" />
        <mxCell id="1" parent="0" />
        <mxCell id="t9MxABzWcRTLGMJupPC0-1" value="Nacos源码怎么看启动类呢？&lt;div&gt;&lt;span style=&quot;white-space: pre;&quot;&gt;&#x9;&lt;/span&gt;源码下载下来，没有头绪，那么就可以下载nacos-server.zip，解压之后，bin文件夹下，有启动脚本，查看脚本，可以看到类似 java -jar 的命令，就可以看到哪个是启动包。这里看到的是nacos-server.jar，在包里面的target文件夹下面，进而查看META-INF文件夹下面的MAINFEST.MF文件，可以看到Start-Class的配置项，这个就是启动类。&lt;br&gt;&lt;/div&gt;" style="rounded=0;whiteSpace=wrap;html=1;fontSize=18;fontStyle=1;verticalAlign=top;align=left;" vertex="1" parent="1">
          <mxGeometry y="50" width="590" height="150" as="geometry" />
        </mxCell>
        <mxCell id="t9MxABzWcRTLGMJupPC0-2" value="连接nacos的服务挂掉了之后，nacos客户端上的服务列表不会及时更新，如果客户端用到了这个错误的服务地址怎么办？有重试机制，在rebin、open feign里面有重试的机制。" style="rounded=0;whiteSpace=wrap;html=1;fontSize=18;fontStyle=1;verticalAlign=top;align=left;" vertex="1" parent="1">
          <mxGeometry x="10" y="240" width="590" height="150" as="geometry" />
        </mxCell>
      </root>
    </mxGraphModel>
  </diagram>
</mxfile>
